<svg xmlns="http://www.w3.org/2000/svg" width="1024" height="1024" viewBox="0 0 1024 1024">
  <defs>
    <linearGradient id="bg" x1="0" y1="0" x2="1" y2="1">
      <stop offset="0%" stop-color="#0B3954"/>
      <stop offset="100%" stop-color="#087E8B"/>
    </linearGradient>
    <linearGradient id="pin" x1="0" y1="0" x2="0" y2="1">
      <stop offset="0%" stop-color="#FF6B6B"/>
      <stop offset="100%" stop-color="#C1121F"/>
    </linearGradient>
  </defs>
  <rect width="1024" height="1024" rx="220" fill="url(#bg)"/>

  <g opacity="0.3" stroke="#D8F3FF" stroke-width="18" fill="none">
    <path d="M130 280 C280 220, 420 360, 570 300 C700 250, 830 330, 900 260"/>
    <path d="M120 430 C260 380, 420 520, 560 470 C700 420, 830 500, 910 430"/>
    <path d="M110 590 C260 530, 430 680, 580 630 C720 580, 840 670, 920 610"/>
    <path d="M100 750 C260 700, 430 850, 590 800 C730 760, 840 830, 920 770"/>
  </g>

  <g fill="none" stroke="#D8F3FF" stroke-width="16" opacity="0.35">
    <circle cx="260" cy="260" r="18"/>
    <circle cx="770" cy="300" r="14"/>
    <circle cx="700" cy="670" r="20"/>
    <circle cx="330" cy="740" r="15"/>
  </g>

  <g transform="translate(512 515)">
    <path d="M0 -265 C-135 -265 -245 -155 -245 -20 C-245 130 -115 245 0 395 C115 245 245 130 245 -20 C245 -155 135 -265 0 -265Z" fill="url(#pin)"/>
    <circle cx="0" cy="-35" r="120" fill="#FFF8E7"/>
    <circle cx="0" cy="-35" r="72" fill="#0B3954"/>
    <circle cx="0" cy="-35" r="35" fill="#FFF8E7"/>
  </g>
</svg>
