<svg xmlns="http://www.w3.org/2000/svg" width="1024" height="1024" viewBox="0 0 1024 1024">
  <defs>
    <linearGradient id="bg" x1="0" y1="0" x2="1" y2="1">
      <stop offset="0%" stop-color="#111827"/>
      <stop offset="100%" stop-color="#1F2937"/>
    </linearGradient>
    <linearGradient id="tgrad" x1="0" y1="0" x2="1" y2="1">
      <stop offset="0%" stop-color="#2EC4B6"/>
      <stop offset="100%" stop-color="#0EA5E9"/>
    </linearGradient>
  </defs>
  <rect width="1024" height="1024" rx="220" fill="url(#bg)"/>

  <g opacity="0.18" stroke="#6EE7B7" stroke-width="14" fill="none">
    <path d="M160 256 H864"/>
    <path d="M160 384 H864"/>
    <path d="M160 512 H864"/>
    <path d="M160 640 H864"/>
    <path d="M256 160 V864"/>
    <path d="M384 160 V864"/>
    <path d="M512 160 V864"/>
    <path d="M640 160 V864"/>
    <path d="M768 160 V864"/>
  </g>

  <g transform="translate(512 512)">
    <rect x="-320" y="-280" width="640" height="150" rx="75" fill="url(#tgrad)"/>
    <rect x="-75" y="-280" width="150" height="600" rx="75" fill="url(#tgrad)"/>

    <path d="M-320 -205 C-280 -150, -260 -70, -260 20 C-260 110, -280 200, -325 265" stroke="#99F6E4" stroke-width="28" stroke-linecap="round" fill="none" opacity="0.9"/>
    <path d="M320 -205 C280 -150, 260 -70, 260 20 C260 110, 280 200, 325 265" stroke="#99F6E4" stroke-width="28" stroke-linecap="round" fill="none" opacity="0.9"/>
    <circle cx="0" cy="380" r="54" fill="#2EC4B6"/>
  </g>
</svg>
